<svg id="Layer_1" data-name="Layer 1" xmlns="http://www.w3.org/2000/svg" viewBox="0 0 379.63 75.34"><defs><style>.cls-1{fill:#fff;}.cls-2{fill:#27a74a;}</style></defs><title>Artboard 1</title><path class="cls-1" d="M52,17.41H39.59V12.52H70.24v4.89H57.82v34H52Z"/><path class="cls-1" d="M81.51,12.52V51.41H75.74V12.52Z"/><path class="cls-1" d="M122.79,40.2c-1.69,6.73-6.72,11.71-15.72,11.71-11.76,0-17.62-8.8-17.62-19.81,0-10.59,5.9-20.14,17.86-20.14,9.39,0,14.38,5.39,15.49,11.89H117c-1.28-4-4-7.16-9.93-7.16-8.27,0-11.62,7.51-11.62,15.23,0,7.43,3.14,15.26,11.84,15.26,5.9,0,8.36-3.48,9.68-7Z"/><path class="cls-1" d="M130.22,12.52H136V31.27c2.83-3,12.35-12.58,18.25-18.75h7.11L144.8,28.88l17.29,22.53h-7L140.76,32.62,136,37v14.4h-5.73Z"/><path class="cls-1" d="M191.74,33.5h-19.2v13h21.11l-.73,4.88h-26V12.52h25.76v4.89H172.54v11.2h19.2Z"/><path class="cls-1" d="M210,17.41H197.56V12.52h30.65v4.89H215.78v34H210Z"/><path class="cls-2" d="M232.31,34.1V25.75h7.47V34.1Zm0,17.31V43.06h7.47v8.35Z"/><path class="cls-2" d="M271.72,12.44V46.91h-7.46V12.44Z"/><path class="cls-2" d="M280,46.91V12.44h9.24c4.3,7.74,12.26,21.7,13.85,25.46h.09c-.39-3.6-.38-9.59-.38-15.24V12.44h6.75V46.91h-8.76c-3.7-6.73-12.52-22.77-14.23-26.75h-.09c.25,3,.33,10.09.33,16.27V46.91Z"/><path class="cls-2" d="M341.52,32.05H325V40.8h18.19l-.89,6.11H317.8V12.44h24.44v6.11H325v7.39h16.49Z"/><rect class="cls-2" x="247.9" y="12.34" width="7.48" height="48.94"/><rect class="cls-2" x="295.63" y="13.22" width="7.48" height="88.64" transform="translate(356.91 -241.83) rotate(90)"/></svg>